<?xml version="1.0" standalone="no"?>
<!DOCTYPE svg PUBLIC "-//W3C//DTD SVG 20010904//EN"
 "http://www.w3.org/TR/2001/REC-SVG-20010904/DTD/svg10.dtd">
<svg version="1.0" xmlns="http://www.w3.org/2000/svg"
 width="512.000000pt" height="512.000000pt" viewBox="0 0 512.000000 512.000000"
 preserveAspectRatio="xMidYMid meet">
<metadata>
Created by potrace 1.14, written by Peter Selinger 2001-2017
</metadata>
<g transform="translate(0.000000,512.000000) scale(0.100000,-0.100000)"
fill="#000000" stroke="none">
<path d="M2378 5115 c-2 -1 -37 -5 -78 -9 -41 -3 -84 -8 -95 -10 -11 -2 -54
-9 -95 -16 -82 -13 -307 -67 -324 -78 -6 -3 -18 -8 -26 -9 -8 -1 -44 -14 -79
-28 -36 -14 -71 -25 -78 -25 -7 0 -13 -5 -13 -10 0 -6 -3 -9 -7 -8 -15 4 -53
-14 -53 -24 0 -6 -3 -9 -6 -5 -7 7 -159 -67 -169 -83 -3 -6 -11 -8 -16 -5 -5
4 -9 1 -9 -4 0 -6 -5 -11 -11 -11 -11 0 -183 -114 -207 -138 -8 -7 -30 -25
-50 -40 -60 -45 -224 -211 -294 -297 -69 -86 -158 -218 -158 -235 0 -5 -4 -10
-10 -10 -5 0 -10 -6 -10 -14 0 -8 -3 -16 -7 -18 -11 -4 -95 -178 -131 -269
-27 -68 -65 -186 -65 -199 1 -3 -5 -21 -13 -40 -7 -19 -15 -48 -18 -65 -3 -16
-10 -48 -15 -70 -11 -45 -22 -110 -24 -140 -1 -11 -6 -23 -12 -27 -6 -5 -5 -8
2 -8 9 0 10 -7 3 -25 -5 -14 -11 -60 -13 -103 -2 -44 -6 -83 -9 -88 -6 -12 -1
-545 6 -654 13 -192 41 -394 68 -480 28 -91 62 -188 77 -215 8 -16 15 -32 16
-35 1 -11 60 -108 98 -160 86 -118 268 -269 402 -332 28 -12 52 -26 53 -31 2
-4 8 -5 13 -1 5 3 9 0 9 -6 0 -7 7 -10 15 -6 8 3 15 1 15 -4 0 -6 3 -9 8 -9 4
1 21 -4 39 -12 l31 -13 0 -315 c0 -320 4 -397 22 -432 6 -10 8 -19 5 -19 -7 0
23 -55 54 -100 31 -44 100 -108 126 -116 11 -3 27 -12 35 -19 44 -36 185 -54
276 -35 31 7 81 27 113 46 54 32 121 86 121 97 0 3 11 18 25 33 14 15 23 29
20 32 -3 3 1 12 9 21 20 24 37 79 42 141 3 30 7 61 9 68 2 6 -1 12 -8 12 -7 0
-8 3 -2 8 6 4 10 55 10 117 0 62 -4 113 -10 117 -7 5 -7 8 0 8 6 0 9 31 7 80
-4 88 -7 83 64 80 86 -3 77 25 79 -266 2 -287 7 -313 71 -409 87 -132 210
-195 370 -191 74 2 99 8 149 31 56 27 135 75 122 75 -3 0 11 17 31 38 43 44
63 78 88 147 14 42 18 91 20 290 1 132 3 249 3 261 1 18 8 21 53 23 28 1 55 4
58 6 4 3 16 -2 26 -10 10 -8 15 -14 9 -15 -5 0 -10 -24 -10 -52 0 -29 5 -56
10 -60 7 -5 7 -8 0 -8 -6 0 -10 -28 -10 -65 0 -36 4 -65 8 -65 5 0 5 -5 2 -11
-10 -16 -11 -149 -1 -149 5 0 3 -6 -3 -13 -6 -8 -9 -16 -6 -18 2 -3 7 -20 10
-39 12 -68 28 -120 36 -120 5 0 8 -3 7 -7 -3 -13 32 -73 42 -73 6 0 10 -5 10
-11 0 -21 77 -82 148 -116 63 -31 85 -36 157 -39 132 -5 229 33 323 126 42 42
98 133 106 173 2 7 6 30 11 52 5 22 8 187 8 367 0 323 0 328 21 335 12 4 23 7
26 8 3 0 31 13 64 28 32 15 62 27 67 27 5 0 9 5 9 10 0 6 6 10 13 10 7 0 55
28 107 62 98 65 242 200 289 272 14 23 32 47 39 54 7 8 10 17 7 22 -3 5 -1 10
4 12 16 6 101 194 117 261 2 9 6 25 9 35 19 72 35 146 39 178 2 22 5 39 6 39
11 0 31 317 34 535 1 91 5 170 9 177 4 6 2 15 -4 19 -8 4 -7 9 2 15 8 5 9 9 4
9 -7 0 -12 39 -13 98 -5 178 -7 222 -13 222 -3 0 -6 15 -7 33 -2 57 -15 135
-37 231 -8 33 -12 63 -9 68 3 4 0 8 -5 8 -6 0 -11 9 -11 20 0 83 -193 535
-262 614 -10 11 -18 24 -18 28 0 5 -5 14 -10 21 -18 21 -115 149 -125 165 -5
9 -19 25 -31 36 -12 12 -40 43 -63 69 -22 27 -41 46 -41 43 0 -2 -21 17 -47
42 -27 26 -79 72 -118 103 -76 61 -268 189 -282 189 -5 0 -15 6 -21 13 -7 6
-16 13 -20 13 -20 3 -72 29 -72 36 0 4 -7 8 -15 8 -9 0 -27 8 -42 17 -14 10
-34 18 -44 20 -10 1 -34 12 -53 23 -20 11 -36 18 -36 15 0 -4 -14 0 -95 31
-11 4 -24 8 -30 9 -5 2 -41 12 -80 23 -38 11 -88 24 -110 28 -49 10 -44 9 -80
17 -16 3 -47 9 -67 12 -21 3 -53 7 -70 10 -18 3 -51 7 -73 11 -41 6 -461 14
-467 9z"/>
</g>
</svg>
